<svg width="87" height="102" viewBox="0 0 87 102" fill="none" xmlns="http://www.w3.org/2000/svg">
<path fill-rule="evenodd" clip-rule="evenodd" d="M58.4909 93.6144L69.0904 90.0147L67.8412 87.7452C67.7815 87.6365 67.7554 87.5123 67.7662 87.3886C67.7771 87.2649 67.8243 87.1473 67.902 87.0508L73.4976 80.0885C73.5985 79.9629 73.7439 79.8817 73.9031 79.8621L82.7306 78.7717C82.8531 78.7564 82.9772 78.7783 83.0872 78.8347C83.1971 78.891 83.2879 78.9791 83.3477 79.0878L86.4175 84.6649C86.5392 84.8869 86.5154 85.1621 86.3567 85.3593L80.7611 92.3216C80.6602 92.4472 80.5148 92.5283 80.3556 92.548L71.5272 93.6384C71.4047 93.6537 71.2806 93.6317 71.1706 93.5754C71.0607 93.5191 70.9699 93.4309 70.9101 93.3223L69.8301 91.3591L59.101 95.0032V99.0602C59.101 99.3265 58.9317 99.5645 58.6804 99.6506L50.9867 102.281C50.8577 102.325 50.718 102.325 50.5891 102.281L42.8944 99.6506C42.772 99.6087 42.6657 99.5292 42.5904 99.4233C42.5151 99.3174 42.4747 99.1904 42.4748 99.0602V94.2697C42.4748 94.0034 42.6432 93.7654 42.8944 93.6793L50.5891 91.0492C50.7177 91.0053 50.8571 91.0053 50.9858 91.0492L58.4909 93.6144ZM7.8074 56.4427L6.97428 55.7199C6.90679 55.6614 6.85264 55.5889 6.81552 55.5074C6.77839 55.4258 6.75917 55.3372 6.75917 55.2475V45.6666C6.75917 45.4855 6.83763 45.3133 6.97428 45.1943L12.2048 40.6551C12.3172 40.5575 12.4607 40.5038 12.6091 40.5038C12.7575 40.5038 12.9009 40.5575 13.0133 40.6551L18.2438 45.1943C18.3113 45.2528 18.3655 45.3253 18.4026 45.4068C18.4397 45.4883 18.459 45.577 18.459 45.6666V55.2475C18.459 55.3372 18.4397 55.4258 18.4026 55.5074C18.3655 55.5889 18.3113 55.6614 18.2438 55.7199L17.7563 56.1434L26.2109 65.1445L32.3143 61.6238C32.4079 61.5697 32.514 61.5413 32.6219 61.5413C32.7299 61.5413 32.836 61.5697 32.9296 61.6238L36.8387 63.8792L51.5738 51.8147C51.4919 51.6233 51.4341 51.4222 51.4019 51.2163L48.7624 34.4298C48.6942 33.996 48.741 33.5518 48.8979 33.142C49.0549 32.7323 49.3165 32.3715 49.6563 32.0963L62.9112 21.3611C63.2478 21.0885 63.6492 20.9093 64.0757 20.8412C64.5022 20.7732 64.939 20.8186 65.3427 20.9731L81.2433 27.0572C81.6512 27.2133 82.0108 27.475 82.2859 27.816C82.561 28.157 82.7418 28.5652 82.81 28.9992L85.4495 45.7856C85.5177 46.2194 85.4709 46.6637 85.3139 47.0734C85.1569 47.4831 84.8953 47.8439 84.5555 48.1191L71.2997 58.8543C70.9633 59.1267 70.562 59.3059 70.1357 59.3739C69.7093 59.442 69.2727 59.3966 68.8691 59.2423L52.9685 53.1582C52.9185 53.1391 52.8691 53.1183 52.8204 53.096L38.489 64.8301L41.5482 66.5954C41.6429 66.65 41.7215 66.7289 41.7762 66.824C41.8308 66.9191 41.8595 67.0271 41.8594 67.137V77.0713C41.8594 77.181 41.8306 77.2888 41.776 77.3838C41.7213 77.4787 41.6427 77.5574 41.5482 77.612L32.9305 82.5836C32.8368 82.6376 32.7308 82.6661 32.6228 82.6661C32.5149 82.6661 32.4088 82.6376 32.3151 82.5836L23.6975 77.612C23.6028 77.5574 23.5241 77.4785 23.4695 77.3834C23.4148 77.2883 23.3861 77.1803 23.3862 77.0704V67.137C23.3862 66.9141 23.5053 66.7072 23.6975 66.5954L24.5403 66.1096L16.3369 57.3768L13.0133 60.2599C12.901 60.3573 12.7577 60.4109 12.6095 60.4109C12.4613 60.4109 12.318 60.3573 12.2057 60.2599L9.33169 57.7666L7.76244 63.817L8.28258 64.205C8.3778 64.2761 8.45009 64.372 8.49241 64.483L13.0697 76.495C13.112 76.6051 13.1226 76.7259 13.0988 76.8413L11.787 83.3818C11.7664 83.4848 11.7203 83.5809 11.653 83.6611C11.5857 83.7414 11.4994 83.8032 11.402 83.8409C11.3047 83.8785 11.1994 83.8908 11.0961 83.8765C10.9928 83.8622 10.8947 83.8219 10.811 83.7592L5.49054 79.783C5.3962 79.7125 5.32373 79.6164 5.2816 79.506L0.703423 67.4931C0.661157 67.3825 0.651065 67.262 0.67433 67.1459L1.98616 60.6053C2.00672 60.5023 2.05279 60.4063 2.12008 60.326C2.18738 60.2458 2.27372 60.184 2.37108 60.1463C2.46844 60.1087 2.57367 60.0964 2.677 60.1107C2.78032 60.1249 2.87839 60.1653 2.9621 60.228L6.19759 62.6467L7.8074 56.4427ZM44.7431 10.7431L45.7226 12.3219C45.861 12.5439 45.846 12.8289 45.6856 13.0358L40.8508 19.2691C40.761 19.3846 40.6337 19.4645 40.4912 19.4947L32.8097 21.1391C32.6855 21.1659 32.556 21.1535 32.439 21.1037C32.3219 21.0538 32.223 20.9688 32.1556 20.8603L29.7761 17.0244L20.2812 20.1171L16.6578 28.7141C16.6296 28.7812 16.5899 28.8429 16.5406 28.8962L7.58876 38.5649C7.48952 38.6722 7.35592 38.7407 7.21146 38.7586C7.06699 38.7765 6.92089 38.7425 6.79884 38.6626L3.66385 36.6115C3.54181 36.5317 3.45159 36.4111 3.40902 36.271C3.36646 36.1308 3.37428 35.9801 3.43111 35.8452L8.56117 23.6751C8.58912 23.608 8.62851 23.5464 8.67754 23.4931L17.6311 13.8234C17.7304 13.7162 17.864 13.6476 18.0084 13.6297C18.1529 13.6119 18.299 13.6459 18.421 13.7257L21.556 15.7769C21.8082 15.9411 21.906 16.2643 21.7888 16.5423L20.8984 18.6529L29.6545 15.8008L34.4037 9.67939C34.4933 9.56411 34.6203 9.48426 34.7625 9.45386L42.4439 7.80851C42.5683 7.7818 42.6978 7.79432 42.8148 7.84436C42.9319 7.89441 43.0308 7.97955 43.0981 8.08821L44.1013 9.70603L53.3705 6.32565L51.4989 5.34004C51.3756 5.27523 51.2777 5.17052 51.2207 5.04278C51.1638 4.91504 51.1512 4.77172 51.185 4.6359L52.1045 0.918993C52.1381 0.783353 52.2161 0.66303 52.3257 0.577357C52.4354 0.491684 52.5705 0.445635 52.7093 0.446609L62.2104 0.508765C62.3091 0.508765 62.4061 0.533627 62.4925 0.5798L70.9109 5.01772C71.164 5.15091 71.2935 5.44126 71.2248 5.72096L70.3044 9.43699C70.271 9.57279 70.1931 9.69331 70.0834 9.77916C69.9737 9.86501 69.8385 9.91118 69.6996 9.91026L60.1986 9.8481C60.1003 9.84733 60.0035 9.82298 59.9164 9.77707L54.7943 7.07685L44.7431 10.7431ZM64.9504 69.6223L69.2579 72.1077C69.3526 72.1623 69.4313 72.2412 69.4859 72.3363C69.5406 72.4314 69.5693 72.5394 69.5691 72.6493V77.6093C69.5693 77.7192 69.5406 77.8272 69.4859 77.9224C69.4313 78.0175 69.3526 78.0964 69.2579 78.151L64.9504 80.6354C64.8567 80.6895 64.7507 80.7179 64.6427 80.7179C64.5348 80.7179 64.4287 80.6895 64.335 80.6354L60.0275 78.151C59.9328 78.0964 59.8542 78.0175 59.7995 77.9224C59.7449 77.8272 59.7162 77.7192 59.7163 77.6093V72.6484C59.7163 72.4247 59.8353 72.2187 60.0275 72.1068L64.335 69.6223C64.4287 69.5683 64.5348 69.5399 64.6427 69.5399C64.7507 69.5399 64.8567 69.5683 64.9504 69.6223Z" fill="url(#paint0_linear_10_8)"/>
<defs>
<linearGradient id="paint0_linear_10_8" x1="92.6826" y1="107.637" x2="-5.2221" y2="38.9819" gradientUnits="userSpaceOnUse">
<stop stop-color="#002238"/>
<stop offset="0.43648" stop-color="#11659A"/>
<stop offset="0.61105" stop-color="#51DEEE"/>
<stop offset="0.93575" stop-color="#3ABBDF"/>
<stop offset="1" stop-color="white"/>
</linearGradient>
</defs>
</svg>
