<svg width="28" height="28" viewBox="0 0 28 28" fill="none" xmlns="http://www.w3.org/2000/svg">
<path d="M27.2906 13.6453C27.2906 6.1084 21.1822 0 13.6453 0C6.1084 0 0 6.1084 0 13.6453C0 21.1822 6.1084 27.2906 13.6453 27.2906C13.7253 27.2906 13.8052 27.2906 13.8852 27.2853V16.6675H10.9535V13.2509H13.8852V10.735C13.8852 7.8194 15.6654 6.231 18.2666 6.231C19.5138 6.231 20.5852 6.32161 20.8944 6.36425V9.41312H19.1034C17.6909 9.41312 17.4137 10.0847 17.4137 11.0708V13.2455H20.7984L20.356 16.6622H17.4137V26.7629C23.1171 25.1265 27.2906 19.8763 27.2906 13.6453Z" fill="#ACACAC"/>
</svg>
