<svg width="180" height="57" viewBox="0 0 180 57" fill="none" xmlns="http://www.w3.org/2000/svg">
<g clip-path="url(#clip0_9_1094)">
<path d="M133.918 35.897H130.89V14.1412H133.918V35.897Z" fill="#888A8D"/>
<path d="M141.468 33.551H151.442V35.897H138.678V14.1412H141.468V33.551Z" fill="#888A8D"/>
<path d="M157.716 35.897H155.12V14.1412H157.716V35.897Z" fill="#B5B5B5"/>
<path d="M175.006 30.2189H165.94L163.904 35.897H160.961L169.225 14.1412H171.722L180 35.897H177.072L175.006 30.2189ZM166.802 27.858H174.159L170.473 17.6825L166.802 27.858Z" fill="#B5B5B5"/>
<path d="M120.882 51.3614C120.851 54.9713 118.739 56.8109 115.178 56.782C111.407 56.752 109.222 55.0838 109.255 51.2676L109.269 42.2061H111.22L111.14 51.2826C111.119 53.758 112.573 55.2139 115.087 55.2341C117.496 55.2535 118.87 53.924 118.892 51.3453L118.885 42.2061H120.937C120.937 42.2061 120.937 45.0507 120.922 46.8231C120.906 48.5956 120.882 51.3614 120.882 51.3614Z" fill="#888A8D"/>
<path d="M123.983 42.2061L125.852 42.2224L130.472 54.943L135.294 42.306L137.163 42.3223L137.048 56.7824L135.77 56.7711L135.869 44.3021L131.146 56.7302L129.868 56.7189L125.344 44.2089L125.245 56.6782L123.966 56.6669L124.081 42.2072L123.983 42.2061Z" fill="#B5B5B5"/>
<path d="M146.636 42.2063C151.001 42.2433 153.205 45.7551 153.173 49.659C153.141 53.5631 150.878 57.037 146.513 56.9998C142.148 56.9628 139.944 53.451 139.976 49.5472C140.009 45.6435 142.271 42.1696 146.636 42.2063ZM146.523 55.8698C150.177 55.9009 151.828 52.7298 151.853 49.6479C151.879 46.5658 150.382 43.3683 146.626 43.3363C142.871 43.3046 141.322 46.4763 141.296 49.5583C141.27 52.6404 142.767 55.8378 146.523 55.8698Z" fill="#B5B5B5"/>
<path d="M155.456 42.4236L157.002 42.4367L165.145 54.6005L165.247 42.5061L166.586 42.5172L166.467 56.7824L164.921 56.7696L156.778 44.6057L156.676 56.7004L155.336 56.6891L155.456 42.4236Z" fill="#B5B5B5"/>
<path d="M170.013 52.1706C169.884 55.0863 172.063 56.0421 174.665 56.0638C176.122 56.076 178.523 55.2628 178.541 53.1794C178.555 51.5134 176.894 50.8742 175.648 50.5514L172.428 49.6909C170.766 49.2602 169.212 48.4139 169.23 46.2268C169.242 44.7687 170.201 42.1724 174.261 42.2065C177.071 42.23 179.556 43.8134 179.532 46.7297L178.179 46.7184C178.093 44.5302 176.333 43.3696 174.251 43.3519C172.377 43.3365 170.602 44.0507 170.584 46.1341C170.573 47.4881 171.61 48.0172 172.752 48.3395L176.284 49.2027C178.361 49.7407 180.019 50.6921 180 52.9836C179.992 53.9209 179.549 57.0422 174.449 56.9995C171.014 56.9708 168.529 55.3872 168.766 51.9518L170.015 51.9624L170.013 52.1706Z" fill="#B5B5B5"/>
<path d="M32.6498 36.8881H25.9121L25.9545 31.9387H32.6498C34.3219 31.9387 35.7316 31.565 36.8795 30.8176C38.0273 30.0562 38.8916 28.9493 39.4725 27.4969C40.0676 26.0444 40.3653 24.289 40.3653 22.2302V20.7284C40.3653 19.1491 40.1953 17.7601 39.8552 16.5616C39.5291 15.363 39.0404 14.3548 38.3886 13.5369C37.7367 12.7191 36.9362 12.1057 35.9867 11.6967C35.0374 11.2737 33.9463 11.0622 32.7136 11.0622H25.7845V6.09161H32.7136C34.7823 6.09161 36.674 6.44414 38.3886 7.14918C40.1174 7.84012 41.6121 8.83425 42.8732 10.1315C44.1345 11.4288 45.105 12.9799 45.7852 14.7848C46.4795 16.5757 46.8267 18.5709 46.8267 20.7707V22.2302C46.8267 24.4158 46.4795 26.411 45.7852 28.2159C45.105 30.021 44.1345 31.5719 42.8732 32.8692C41.6264 34.1524 40.1314 35.1466 38.3886 35.8517C36.6597 36.5427 34.747 36.8881 32.6498 36.8881ZM29.5253 6.09161V36.8881H23.1489V6.09161H29.5253Z" fill="#B5B5B5"/>
<path d="M61.6627 37.3111C59.8774 37.3111 58.2763 37.0291 56.8592 36.465C55.4421 35.887 54.2377 35.0903 53.246 34.0749C52.2681 33.0596 51.5172 31.8822 50.993 30.5427C50.4685 29.189 50.2065 27.7508 50.2065 26.2279V25.3818C50.2065 23.6472 50.4545 22.061 50.9503 20.6226C51.4464 19.1844 52.1547 17.9364 53.0759 16.8788C54.011 15.8213 55.1446 15.0105 56.4767 14.4464C57.8085 13.8683 59.3106 13.5792 60.9825 13.5792C62.612 13.5792 64.0575 13.8471 65.3185 14.383C66.5796 14.9188 67.6354 15.6803 68.4856 16.6673C69.3499 17.6544 70.0018 18.8389 70.441 20.2207C70.8801 21.5886 71.1 23.1113 71.1 24.7894V27.3276H52.8209V23.2665H65.0849V22.8013C65.0849 21.9552 64.9289 21.2008 64.6171 20.538C64.3197 19.8612 63.8662 19.3253 63.257 18.9305C62.6475 18.5357 61.8682 18.3383 60.9189 18.3383C60.1111 18.3383 59.4168 18.5146 58.8359 18.8671C58.2548 19.2196 57.7802 19.7131 57.4117 20.3477C57.0576 20.9822 56.7884 21.7296 56.6041 22.5896C56.4341 23.4357 56.349 24.3664 56.349 25.3818V26.2279C56.349 27.1444 56.4767 27.9903 56.7318 28.7659C57.0009 29.5415 57.3765 30.2113 57.8583 30.7752C58.3541 31.3394 58.9493 31.7764 59.6436 32.0867C60.3521 32.3969 61.1526 32.552 62.0454 32.552C63.1505 32.552 64.178 32.3406 65.1273 31.9174C66.0909 31.4803 66.9197 30.8246 67.6142 29.9505L70.5898 33.1653C70.108 33.8563 69.449 34.5192 68.6131 35.1536C67.7912 35.7882 66.7994 36.3099 65.6374 36.7189C64.4754 37.1138 63.1505 37.3111 61.6627 37.3111Z" fill="#B5B5B5"/>
<path d="M85.17 37.3111C83.3848 37.3111 81.7836 37.0291 80.3665 36.465C78.9494 35.887 77.745 35.0903 76.7533 34.0749C75.7754 33.0596 75.0245 31.8822 74.5003 30.5427C73.9759 29.189 73.7139 27.7508 73.7139 26.2279V25.3818C73.7139 23.6472 73.9618 22.061 74.4577 20.6226C74.9538 19.1844 75.6621 17.9364 76.5833 16.8788C77.5183 15.8213 78.652 15.0105 79.984 14.4464C81.3158 13.8683 82.8179 13.5792 84.4899 13.5792C86.1194 13.5792 87.5648 13.8471 88.8259 14.383C90.0869 14.9188 91.1427 15.6803 91.9927 16.6673C92.8573 17.6544 93.5091 18.8389 93.9483 20.2207C94.3875 21.5886 94.6073 23.1113 94.6073 24.7894V27.3276H76.3282V23.2665H88.592V22.8013C88.592 21.9552 88.4362 21.2008 88.1245 20.538C87.827 19.8612 87.3735 19.3253 86.7641 18.9305C86.1549 18.5357 85.3756 18.3383 84.4262 18.3383C83.6184 18.3383 82.9242 18.5146 82.3433 18.8671C81.7622 19.2196 81.2875 19.7131 80.9191 20.3477C80.5649 20.9822 80.2958 21.7296 80.1114 22.5896C79.9414 23.4357 79.8564 24.3664 79.8564 25.3818V26.2279C79.8564 27.1444 79.984 27.9903 80.2391 28.7659C80.5082 29.5415 80.8838 30.2113 81.3654 30.7752C81.8615 31.3394 82.4566 31.7764 83.1509 32.0867C83.8594 32.3969 84.6599 32.552 85.5528 32.552C86.6579 32.552 87.6853 32.3406 88.6346 31.9174C89.5982 31.4803 90.427 30.8246 91.1215 29.9505L94.0971 33.1653C93.6153 33.8563 92.9563 34.5192 92.1204 35.1536C91.2985 35.7882 90.3065 36.3099 89.1448 36.7189C87.9828 37.1138 86.6579 37.3111 85.17 37.3111Z" fill="#B5B5B5"/>
<path d="M104.215 18.4017V56.5649H98.0933V14.0022H103.768L104.215 18.4017ZM118.774 25.1914V25.6354C118.774 27.2993 118.576 28.8435 118.179 30.2677C117.796 31.6918 117.23 32.9327 116.479 33.9903C115.727 35.0337 114.792 35.8517 113.673 36.4439C112.568 37.022 111.292 37.3111 109.847 37.3111C108.444 37.3111 107.226 37.0291 106.191 36.465C105.157 35.9011 104.285 35.1114 103.577 34.096C102.883 33.0668 102.323 31.8752 101.898 30.5216C101.473 29.1677 101.147 27.7155 100.92 26.1643V25.001C101.147 23.3372 101.473 21.8143 101.898 20.4323C102.323 19.0363 102.883 17.8306 103.577 16.8154C104.285 15.786 105.15 14.9893 106.17 14.4253C107.204 13.8612 108.416 13.5792 109.805 13.5792C111.264 13.5792 112.547 13.8542 113.652 14.4041C114.771 14.9541 115.706 15.7437 116.457 16.7731C117.222 17.8024 117.796 19.0292 118.179 20.4534C118.576 21.8776 118.774 23.4568 118.774 25.1914ZM112.632 25.6354V25.1914C112.632 24.2183 112.547 23.323 112.376 22.505C112.22 21.6732 111.965 20.947 111.611 20.3265C111.271 19.7061 110.818 19.2266 110.251 18.8882C109.698 18.5357 109.025 18.3594 108.232 18.3594C107.396 18.3594 106.68 18.4934 106.085 18.7613C105.504 19.0292 105.029 19.417 104.661 19.9246C104.292 20.4323 104.016 21.0386 103.832 21.7436C103.648 22.4487 103.534 23.2454 103.492 24.1339V27.0737C103.563 28.1173 103.761 29.055 104.087 29.8869C104.413 30.7047 104.916 31.3535 105.596 31.8328C106.276 32.3123 107.169 32.552 108.274 32.552C109.082 32.552 109.762 32.3758 110.315 32.0231C110.867 31.6566 111.314 31.156 111.654 30.5216C112.008 29.8869 112.256 29.1538 112.398 28.3218C112.553 27.4897 112.632 26.5944 112.632 25.6354Z" fill="#B5B5B5"/>
<path fill-rule="evenodd" clip-rule="evenodd" d="M19.4321 6.09163L16.4699 3.21216L15.1166 4.61995L18.6448 8.04964H23.2572V6.09163H19.4321Z" fill="#B5B5B5"/>
<path fill-rule="evenodd" clip-rule="evenodd" d="M14.6035 11.7481H23.2574V13.7061H14.6035V11.7481Z" fill="#B5B5B5"/>
<path d="M13.8462 15.229C15.28 15.229 16.4423 14.0602 16.4423 12.6183C16.4423 11.1765 15.28 10.0076 13.8462 10.0076C12.4123 10.0076 11.25 11.1765 11.25 12.6183C11.25 14.0602 12.4123 15.229 13.8462 15.229Z" fill="#B5B5B5"/>
<path fill-rule="evenodd" clip-rule="evenodd" d="M11.4663 18.3836H23.7981V20.3416H11.4663V18.3836Z" fill="#B5B5B5"/>
<path d="M10.3847 21.9733C11.8185 21.9733 12.9809 20.8044 12.9809 19.3626C12.9809 17.9207 11.8185 16.7519 10.3847 16.7519C8.95091 16.7519 7.78857 17.9207 7.78857 19.3626C7.78857 20.8044 8.95091 21.9733 10.3847 21.9733Z" fill="#BBBBBB"/>
<path fill-rule="evenodd" clip-rule="evenodd" d="M19.6875 24.9103H23.5817V26.8683H19.6875V24.9103Z" fill="#B5B5B5"/>
<path fill-rule="evenodd" clip-rule="evenodd" d="M17.2207 34.918H23.1491V36.876H17.6868L13.4216 39.0542L12.5399 37.3084L17.2207 34.918Z" fill="#B5B5B5"/>
<path fill-rule="evenodd" clip-rule="evenodd" d="M16.5081 29.9141L10.6207 25.7418L9.49902 27.3422L15.8909 31.8722H23.7978V29.9141H16.5081Z" fill="#B5B5B5"/>
<path d="M18.1733 28.5C19.6071 28.5 20.7695 27.3312 20.7695 25.8893C20.7695 24.4475 19.6071 23.2786 18.1733 23.2786C16.7395 23.2786 15.5771 24.4475 15.5771 25.8893C15.5771 27.3312 16.7395 28.5 18.1733 28.5Z" fill="#868686"/>
<path d="M12.7646 40.9007C14.1984 40.9007 15.3608 39.7319 15.3608 38.2901C15.3608 36.8482 14.1984 35.6794 12.7646 35.6794C11.3308 35.6794 10.1685 36.8482 10.1685 38.2901C10.1685 39.7319 11.3308 40.9007 12.7646 40.9007Z" fill="#B9B9B9"/>
<path d="M9.95211 29.1526C11.3859 29.1526 12.5483 27.9838 12.5483 26.542C12.5483 25.1001 11.3859 23.9313 9.95211 23.9313C8.51829 23.9313 7.35596 25.1001 7.35596 26.542C7.35596 27.9838 8.51829 29.1526 9.95211 29.1526Z" fill="#B5B5B5"/>
<path d="M3.6777 16.0992C5.11151 16.0992 6.27385 14.9304 6.27385 13.4886C6.27385 12.0467 5.11151 10.8779 3.6777 10.8779C2.24388 10.8779 1.08154 12.0467 1.08154 13.4886C1.08154 14.9304 2.24388 16.0992 3.6777 16.0992Z" fill="#818181"/>
<path d="M2.59615 25.8893C4.02997 25.8893 5.19231 24.7204 5.19231 23.2786C5.19231 21.8368 4.02997 20.6679 2.59615 20.6679C1.16234 20.6679 0 21.8368 0 23.2786C0 24.7204 1.16234 25.8893 2.59615 25.8893Z" fill="#B5B5B5"/>
<path d="M7.78848 9.13739C9.22229 9.13739 10.3846 7.96855 10.3846 6.5267C10.3846 5.08486 9.22229 3.91602 7.78848 3.91602C6.35466 3.91602 5.19232 5.08486 5.19232 6.5267C5.19232 7.96855 6.35466 9.13739 7.78848 9.13739Z" fill="#B5B5B5"/>
<path d="M6.27389 35.6794C7.7077 35.6794 8.87004 34.5105 8.87004 33.0687C8.87004 31.6269 7.7077 30.458 6.27389 30.458C4.84007 30.458 3.67773 31.6269 3.67773 33.0687C3.67773 34.5105 4.84007 35.6794 6.27389 35.6794Z" fill="#B5B5B5"/>
<path d="M14.9277 5.22137C16.3615 5.22137 17.5239 4.05253 17.5239 2.61069C17.5239 1.16884 16.3615 0 14.9277 0C13.4939 0 12.3315 1.16884 12.3315 2.61069C12.3315 4.05253 13.4939 5.22137 14.9277 5.22137Z" fill="#A6A6A6"/>
<path d="M121.5 17.7091C122.106 17.129 122.669 16.4328 123.188 15.6206C123.678 14.8084 123.995 13.9962 124.14 13.184C123.015 13.184 122.077 12.8794 121.327 12.2702C120.577 11.6611 120.202 10.8053 120.202 9.70304C120.202 8.62977 120.548 7.73052 121.241 7.00533C121.933 6.30915 122.827 5.96106 123.923 5.96106C124.991 5.96106 125.87 6.32366 126.563 7.04885C127.255 7.80305 127.601 8.71679 127.601 9.79007C127.601 11.5885 127.154 13.3145 126.26 14.9679C125.337 16.6504 124.168 17.9557 122.755 18.884L121.5 17.7091Z" fill="#B4B4B4"/>
</g>
<defs>
<clipPath id="clip0_9_1094">
<rect width="180" height="57" fill="white"/>
</clipPath>
</defs>
</svg>
