<svg width="29" height="28" viewBox="0 0 29 28" fill="none" xmlns="http://www.w3.org/2000/svg">
<path d="M14.5008 0C6.96583 0 0.855469 6.11036 0.855469 13.6453C0.855469 21.1802 6.96583 27.2906 14.5008 27.2906C22.0357 27.2906 28.1461 21.1802 28.1461 13.6453C28.1461 6.11036 22.0357 0 14.5008 0ZM20.7311 10.6392C20.7371 10.7734 20.74 10.9084 20.74 11.0439C20.74 15.1825 17.5898 19.9549 11.8288 19.9551H11.829H11.8288C10.06 19.9551 8.41414 19.4367 7.02808 18.5482C7.27315 18.5772 7.52258 18.5916 7.77514 18.5916C9.24261 18.5916 10.5931 18.091 11.6651 17.2509C10.2941 17.2255 9.13809 16.32 8.73916 15.0755C8.93009 15.1121 9.12643 15.1321 9.32777 15.1321C9.61364 15.1321 9.89056 15.0936 10.1537 15.0218C8.72063 14.7349 7.64106 13.4683 7.64106 11.9517C7.64106 11.9376 7.64106 11.9249 7.64147 11.9117C8.06352 12.1464 8.54615 12.2876 9.06001 12.3034C8.21905 11.7423 7.66625 10.783 7.66625 9.69637C7.66625 9.12254 7.82137 8.58494 8.09037 8.12209C9.63488 10.0172 11.9431 11.2636 14.5462 11.3945C14.4924 11.1651 14.4647 10.9261 14.4647 10.6804C14.4647 8.9514 15.8675 7.54868 17.5971 7.54868C18.498 7.54868 19.3117 7.9295 19.8832 8.53831C20.5968 8.39756 21.2668 8.13688 21.8721 7.77813C21.6378 8.50916 21.1414 9.12254 20.4947 9.51044C21.1283 9.43465 21.7321 9.26663 22.2933 9.01719C21.8741 9.64536 21.3426 10.1971 20.7311 10.6392Z" fill="#ACACAC"/>
</svg>
