<?xml version="1.0" encoding="UTF-8" standalone="no"?>
<!-- Created with Inkscape (http://www.inkscape.org/) -->

<svg
   width="7.2206421mm"
   height="7.2206378mm"
   viewBox="0 0 7.2206421 7.2206378"
   version="1.1"
   id="svg5"
   inkscape:version="1.1.2 (08b2f3d93c, 2022-04-05)"
   sodipodi:docname="youtube.svg"
   xmlns:inkscape="http://www.inkscape.org/namespaces/inkscape"
   xmlns:sodipodi="http://sodipodi.sourceforge.net/DTD/sodipodi-0.dtd"
   xmlns="http://www.w3.org/2000/svg"
   xmlns:svg="http://www.w3.org/2000/svg">
  <sodipodi:namedview
     id="namedview7"
     pagecolor="#ffffff"
     bordercolor="#666666"
     borderopacity="1.0"
     inkscape:pageshadow="2"
     inkscape:pageopacity="0.0"
     inkscape:pagecheckerboard="0"
     inkscape:document-units="mm"
     showgrid="false"
     fit-margin-top="0"
     fit-margin-left="0"
     fit-margin-right="0"
     fit-margin-bottom="0"
     inkscape:zoom="3.1108586"
     inkscape:cx="68.148389"
     inkscape:cy="12.697459"
     inkscape:window-width="1551"
     inkscape:window-height="1082"
     inkscape:window-x="634"
     inkscape:window-y="121"
     inkscape:window-maximized="0"
     inkscape:current-layer="layer1" />
  <defs
     id="defs2">
    <clipPath
       clipPathUnits="userSpaceOnUse"
       id="clipPath445">
      <rect
         style="fill:#0000ff;fill-rule:evenodd;stroke-width:0.999999"
         id="rect447"
         width="37.617062"
         height="32.616817"
         x="-5.0070739"
         y="-1.6893455" />
    </clipPath>
    <clipPath
       clipPathUnits="userSpaceOnUse"
       id="clipPath449">
      <rect
         style="fill:#0000ff;fill-rule:evenodd;stroke-width:0.999999"
         id="rect451"
         width="37.617062"
         height="32.616817"
         x="-16.959299"
         y="-12.703683" />
    </clipPath>
  </defs>
  <g
     inkscape:label="Layer 1"
     inkscape:groupmode="layer"
     id="layer1"
     transform="translate(-7.4744016,-4.7307642)">
    <g
       style="fill:none"
       id="g18"
       transform="matrix(0.26458333,0,0,0.26458333,10.449176,7.6449742)"
       clip-path="url(#clipPath449)">
      <path
         d="M 0.654297,5.20169 5.09293,2.64528 0.654297,0.0888672 Z"
         fill="#acacac"
         id="path9" />
    </g>
    <g
       style="fill:none"
       id="g29"
       transform="matrix(0.26458333,0,0,0.26458333,7.2868163,4.7307642)"
       clip-path="url(#clipPath445)">
      <path
         d="M 14.3543,0 C 6.81934,0 0.708984,6.11036 0.708984,13.6453 c 0,7.5349 6.110356,13.6453 13.645316,13.6453 7.5349,0 13.6453,-6.1104 13.6453,-13.6453 C 27.9996,6.11036 21.8892,0 14.3543,0 Z m 8.5262,13.6592 c 0,0 0,2.7674 -0.351,4.1018 -0.1968,0.7304 -0.7727,1.3063 -1.5031,1.5029 -1.3344,0.3512 -6.6721,0.3512 -6.6721,0.3512 0,0 -5.32376,0 -6.67213,-0.3652 C 6.95177,19.0534 6.37586,18.4772 6.1791,17.7468 5.82784,16.4266 5.82785,13.6453 5.82785,13.6453 c 0,0 -10e-6,-2.7671 0.35125,-4.10155 C 6.37565,8.81335 6.96572,8.22328 7.68217,8.02673 9.01659,7.67548 14.3543,7.67548 14.3543,7.67548 c 0,0 5.3377,0 6.6721,0.3652 0.7304,0.19655 1.3063,0.77267 1.5031,1.50307 0.3652,1.33445 0.351,4.11545 0.351,4.11545 z"
         fill="#acacac"
         id="path20" />
    </g>
  </g>
</svg>
