<svg width="276" height="64" viewBox="0 0 276 64" fill="none" xmlns="http://www.w3.org/2000/svg">
<path d="M17.6688 46.0871C12.5285 46.0871 8.31557 44.4314 5.03013 41.1202C1.74246 37.7686 0.0986328 33.3342 0.0986328 27.8169C0.0986328 22.2995 1.72025 17.9076 4.96349 14.6411C8.25115 11.3746 12.4863 9.74129 17.6688 9.74129C22.8513 9.74129 27.1497 11.3533 30.564 14.5773C33.9738 17.8036 35.6787 22.2805 35.6787 28.0082C35.6787 29.2387 35.5954 30.3842 35.4288 31.4447H11.1579C11.3689 33.0154 12.0642 34.3097 13.2437 35.3277C14.4233 36.3031 15.6873 36.7909 17.0357 36.7909C18.4263 36.7909 19.4592 36.6645 20.1345 36.4117C20.8076 36.1141 21.2919 35.8378 21.5873 35.5827C21.925 35.2851 22.347 34.8187 22.8535 34.1833H34.5425C33.5317 37.7474 31.5103 40.6335 28.4781 42.8418C25.4436 45.0053 21.8405 46.0871 17.6688 46.0871ZM24.4329 24.6353C24.2641 22.9797 23.5477 21.6429 22.2837 20.6249C21.0175 19.5644 19.5214 19.0341 17.7954 19.0341C16.0671 19.0341 14.6132 19.5644 13.4337 20.6249C12.2563 21.6429 11.5188 22.9797 11.2212 24.6353H24.4329ZM42.3662 27.8169V18.7791H70.1759V27.8169H42.3662ZM107.972 32.5287C110.122 30.1952 111.197 27.0763 111.197 23.1721C111.197 19.2679 110.122 16.148 107.972 13.8122C105.866 11.4786 103.023 10.3118 99.4417 10.3118C95.903 10.3118 93.0596 11.4786 90.9115 13.8122C88.8034 16.148 87.7493 19.2679 87.7493 23.1721C87.7493 27.0763 88.8023 30.1952 90.9082 32.5287C93.0585 34.8623 95.9019 36.0291 99.4383 36.0291C103.021 36.0291 105.866 34.8623 107.972 32.5287ZM83.3243 39.5932C78.9437 35.2639 76.7534 29.7902 76.7534 23.1721C76.7534 16.5496 78.9437 11.096 83.3243 6.81148C87.7493 2.48444 93.1429 0.320923 99.505 0.320923C105.909 0.320923 111.281 2.48444 115.619 6.81148C120.002 11.0982 122.193 16.5518 122.193 23.1721C122.193 29.7902 120.002 35.2639 115.619 39.5932C111.238 43.9224 105.867 46.0871 99.505 46.0871C93.1429 46.0871 87.7493 43.9224 83.3243 39.5932ZM139.897 10.1205V16.742C142.425 12.0749 145.794 9.74129 150.006 9.74129V20.8162H147.354C144.866 20.8162 142.991 21.4091 141.729 22.5949C140.507 23.7852 139.897 25.8659 139.897 28.8371V45.6407H129.087V10.1205H139.897ZM155.874 45.6407V10.1205H166.68V45.6407H155.874ZM178.202 40.9926C175.086 37.5986 173.527 33.2492 173.527 27.9444C173.527 22.6419 175.086 18.2925 178.202 14.8962C181.321 11.4596 185.113 9.74129 189.578 9.74129C194.088 9.74129 197.542 11.4171 199.941 14.7686V10.1205H210.75V45.4494C210.75 50.4164 209.402 54.5532 206.705 57.86C205.357 59.5604 203.503 60.876 201.144 61.8067C198.827 62.7419 196.13 63.2095 193.053 63.2095C187.662 63.2095 183.386 62.1054 180.225 59.8971C177.066 57.6911 175.276 54.3183 174.854 49.7787H185.47C186.483 52.4523 189.011 53.7892 193.053 53.7892C195.035 53.7892 196.679 53.1101 197.985 51.7521C199.291 50.4365 199.944 48.3356 199.944 45.4494V40.4825C197.332 44.2189 193.834 46.0871 189.451 46.0871C185.071 46.0871 181.321 44.3889 178.202 40.9926ZM197.605 34.3745C199.165 32.8464 199.944 30.6818 199.944 27.8806C199.944 25.0795 199.165 22.9361 197.605 21.4505C196.046 19.9246 194.255 19.1617 192.234 19.1617C190.212 19.1617 188.422 19.9246 186.862 21.4505C185.303 22.9786 184.523 25.1432 184.523 27.9444C184.523 30.7456 185.303 32.9102 186.862 34.4383C188.422 35.9239 190.212 36.6667 192.234 36.6667C194.255 36.6667 196.046 35.9027 197.605 34.3745ZM220.183 45.6407V10.1205H230.993V45.6407H220.183ZM251.235 10.1205V15.3425C253.468 11.6061 257.027 9.73794 261.914 9.73794C265.96 9.73794 269.225 11.096 271.711 13.8122C274.239 16.5283 275.503 20.2199 275.503 24.8871V45.6407H264.76V26.3536C264.76 24.0626 264.149 22.3018 262.927 21.0712C261.748 19.796 260.104 19.1583 257.996 19.1583C255.89 19.1583 254.226 19.796 253.005 21.0712C251.825 22.3018 251.235 24.0626 251.235 26.3536V45.6407H240.429V10.1205H251.235Z" fill="black"/>
</svg>
