<svg width="394" height="64" viewBox="0 0 394 64" fill="none" xmlns="http://www.w3.org/2000/svg">
<path d="M0 0V64H18.5521V0H0ZM26.5049 0V63.9865H45.0434V31.6822L45.4526 31.52L61.2628 63.9865H81.179V0H62.6269V31.7634L62.1495 31.831L46.4075 0H26.5049ZM89.1319 0V63.9865H107.67V39.8766H128.146V26.1787H107.67V14.0089H129.592V0H89.1319ZM136.262 0V63.9865H154.801V39.8766H156.656L168.701 63.9865H189.982L173.83 37.0911C182.421 34.4627 186.926 28.0255 186.926 18.5523C186.926 6.45611 178.735 0 163.64 0H136.262ZM229.555 0L220.974 26.03L225.067 40.9989H216.145L212.135 53.6421H228.518L231.328 63.9865H250.112H274.039C290.015 63.9865 300.939 58.9735 300.939 46.5565C300.939 36.9256 295.637 30.4796 286.002 29.8432C293.789 26.8192 296.683 22.0437 296.683 15.1988C296.683 4.53311 289.703 0 275.089 0H249.157V61.0116L229.555 0ZM305.918 0V63.9865H346.474V49.9776H324.307V38.8354H345.028V25.1511H324.307V14.0089H346.474V0H305.918ZM353.772 0V63.9865H394V49.9776H372.406V0H353.772ZM154.801 14.0089H161.076C166.214 14.0089 168.933 16.3146 168.933 20.9322C168.933 25.9482 165.491 28.5721 160.353 28.5721H154.801V14.0089ZM267.532 14.0089H272.757C277.013 14.0089 279.905 15.6032 279.905 19.7422C279.905 24.277 276.446 26.03 272.429 26.03H267.532V14.0089ZM267.532 37.8077H273.807C278.144 37.8077 281.596 39.2353 281.596 43.6898C281.596 47.0347 279.341 49.9776 273.48 49.9776H267.532V37.8077Z" fill="#23B9E8"/>
</svg>
