<?xml version="1.0" encoding="UTF-8" standalone="no"?>
<!-- Created with Inkscape (http://www.inkscape.org/) -->

<svg
   width="100.68223mm"
   height="26.952417mm"
   viewBox="0 0 100.68223 26.952417"
   version="1.1"
   id="svg375"
   inkscape:version="1.1.2 (76b9e6a115, 2022-02-25)"
   sodipodi:docname="part1.svg"
   xmlns:inkscape="http://www.inkscape.org/namespaces/inkscape"
   xmlns:sodipodi="http://sodipodi.sourceforge.net/DTD/sodipodi-0.dtd"
   xmlns="http://www.w3.org/2000/svg"
   xmlns:svg="http://www.w3.org/2000/svg">
  <sodipodi:namedview
     id="namedview377"
     pagecolor="#ffffff"
     bordercolor="#666666"
     borderopacity="1.0"
     inkscape:pageshadow="2"
     inkscape:pageopacity="0.0"
     inkscape:pagecheckerboard="0"
     inkscape:document-units="mm"
     showgrid="false"
     inkscape:zoom="1.5554293"
     inkscape:cx="317.91866"
     inkscape:cy="275.8081"
     inkscape:window-width="2560"
     inkscape:window-height="1403"
     inkscape:window-x="2560"
     inkscape:window-y="0"
     inkscape:window-maximized="1"
     inkscape:current-layer="g426"
     objecttolerance="20"
     fit-margin-top="0"
     fit-margin-left="0"
     fit-margin-right="0"
     fit-margin-bottom="0" />
  <defs
     id="defs372">
    <linearGradient
       id="paint0_linear_10_8"
       x1="92.682602"
       y1="107.637"
       x2="-5.2220998"
       y2="38.981899"
       gradientUnits="userSpaceOnUse">
      <stop
         stop-color="#002238"
         id="stop479" />
      <stop
         offset="0.43648"
         stop-color="#11659A"
         id="stop481" />
      <stop
         offset="0.61105"
         stop-color="#51DEEE"
         id="stop483" />
      <stop
         offset="0.93575"
         stop-color="#3ABBDF"
         id="stop485" />
      <stop
         offset="1"
         stop-color="white"
         id="stop487" />
    </linearGradient>
  </defs>
  <g
     inkscape:label="Layer 1"
     inkscape:groupmode="layer"
     id="layer1"
     transform="translate(-0.12760834,-0.15706022)">
    <g
       style="fill:none"
       id="g426"
       transform="matrix(0.26458333,0,0,0.26458333,26.540476,4.9435327)">
      <path
         d="m 22.868894,45.460259 c -5.1403,0 -9.35323,-1.6557 -12.63867,-4.9669 -3.2876697,-3.3516 -4.9314969,-7.786 -4.9314969,-13.3033 0,-5.5174 1.6216172,-9.9093 4.8648569,-13.1758 3.28766,-3.2665 7.52281,-4.8998095 12.70531,-4.8998095 5.1825,0 9.4809,1.6120095 12.8952,4.8360095 3.4098,3.2263 5.1147,7.7032 5.1147,13.4309 0,1.2305 -0.0833,2.376 -0.2499,3.4365 h -24.2709 c 0.211,1.5707 0.9063,2.865 2.0858,3.883 1.1796,0.9754 2.4436,1.4632 3.792,1.4632 1.3906,0 2.4235,-0.1264 3.0988,-0.3792 0.6731,-0.2976 1.1574,-0.5739 1.4528,-0.829 0.3377,-0.2976 0.7597,-0.764 1.2662,-1.3994 h 11.689 c -1.0108,3.5641 -3.0322,6.4502 -6.0644,8.6585 -3.0345,2.1635 -6.6376,3.2453 -10.8093,3.2453 z m 6.7641,-21.4518 c -0.1688,-1.6556 -0.8852,-2.9924 -2.1492,-4.0104 -1.2662,-1.0605 -2.7623,-1.5908 -4.4883,-1.5908 -1.7283,0 -3.1822,0.5303 -4.3617,1.5908 -1.1774,1.018 -1.9149,2.3548 -2.2125,4.0104 z m 17.9333,3.1816 v -9.0378 h 27.8097 v 9.0378 z m 65.605796,4.7118 c 2.15,-2.3335 3.225,-5.4524 3.225,-9.3566 0,-3.9042 -1.075,-7.0241 -3.225,-9.3599 -2.106,-2.3336 -4.949,-3.5003995 -8.5303,-3.5003995 -3.5387,0 -6.382096,1.1667995 -8.530196,3.5003995 -2.1081,2.3358 -3.1622,5.4557 -3.1622,9.3599 0,3.9042 1.053,7.0231 3.1589,9.3566 2.1503,2.3336 4.993696,3.5004 8.530096,3.5004 3.5827,0 6.4277,-1.1668 8.5337,-3.5004 z m -24.647696,7.0645 c -4.3806,-4.3293 -6.5709,-9.803 -6.5709,-16.4211 0,-6.6225 2.1903,-12.0761 6.5709,-16.3606195 4.425,-4.32704 9.8186,-6.49055703 16.180696,-6.49055703 6.404,0 11.776,2.16351703 16.114,6.49055703 4.383,4.2867195 6.574,9.7403195 6.574,16.3606195 0,6.6181 -2.191,12.0918 -6.574,16.4211 -4.381,4.3292 -9.752,6.4939 -16.114,6.4939 -6.362096,0 -11.755696,-2.1647 -16.180696,-6.4939 z M 145.09709,9.4936595 v 6.6214995 c 2.528,-4.6671 5.897,-7.0007095 10.109,-7.0007095 V 20.189359 h -2.652 c -2.488,0 -4.363,0.5929 -5.625,1.7787 -1.222,1.1903 -1.832,3.271 -1.832,6.2422 v 16.8036 h -10.81 V 9.4936595 Z m 15.977,35.5201995 V 9.4936595 h 10.806 V 45.013859 Z m 22.328,-4.6481 c -3.116,-3.394 -4.675,-7.7434 -4.675,-13.0482 0,-5.3025 1.559,-9.6519 4.675,-13.0482 3.119,-3.4366 6.911,-5.1549095 11.376,-5.1549095 4.51,0 7.964,1.6758095 10.363,5.0273095 V 9.4936595 h 10.809 V 44.822559 c 0,4.967 -1.348,9.1038 -4.045,12.4106 -1.348,1.7004 -3.202,3.016 -5.561,3.9467 -2.317,0.9352 -5.014,1.4028 -8.091,1.4028 -5.391,0 -9.667,-1.1041 -12.828,-3.3124 -3.159,-2.206 -4.949,-5.5788 -5.371,-10.1184 h 10.616 c 1.013,2.6736 3.541,4.0105 7.583,4.0105 1.982,0 3.626,-0.6791 4.932,-2.0371 1.306,-1.3156 1.959,-3.4165 1.959,-6.3027 v -4.9669 c -2.612,3.7364 -6.11,5.6046 -10.493,5.6046 -4.38,0 -8.13,-1.6982 -11.249,-5.0945 z m 19.403,-6.6181 c 1.56,-1.5281 2.339,-3.6927 2.339,-6.4939 0,-2.8011 -0.779,-4.9445 -2.339,-6.4301 -1.559,-1.5259 -3.35,-2.2888 -5.371,-2.2888 -2.022,0 -3.812,0.7629 -5.372,2.2888 -1.559,1.5281 -2.339,3.6927 -2.339,6.4939 0,2.8012 0.78,4.9658 2.339,6.4939 1.56,1.4856 3.35,2.2284 5.372,2.2284 2.021,0 3.812,-0.764 5.371,-2.2922 z m 22.578,11.2662 V 9.4936595 h 10.81 V 45.013859 Z m 31.052,-35.5201995 v 5.2219995 c 2.233,-3.7364 5.792,-5.6045595 10.679,-5.6045595 4.046,0 7.311,1.3580595 9.797,4.0742595 2.528,2.7161 3.792,6.4077 3.792,11.0749 v 20.7536 h -10.743 v -19.2871 c 0,-2.291 -0.611,-4.0518 -1.833,-5.2824 -1.179,-1.2752 -2.823,-1.9129 -4.931,-1.9129 -2.106,0 -3.77,0.6377 -4.991,1.9129 -1.18,1.2306 -1.77,2.9914 -1.77,5.2824 v 19.2871 h -10.806 V 9.4936595 Z"
         fill="#000000"
         id="path417" />
    </g>
    <g
       style="fill:none"
       id="g503"
       transform="matrix(0.26458333,0,0,0.26458333,-0.04757483,0.03889893)">
      <path
         fill-rule="evenodd"
         clip-rule="evenodd"
         d="m 58.4909,93.6144 10.5995,-3.5997 -1.2492,-2.2695 c -0.0597,-0.1087 -0.0858,-0.2329 -0.075,-0.3566 0.0109,-0.1237 0.0581,-0.2413 0.1358,-0.3378 l 5.5956,-6.9623 c 0.1009,-0.1256 0.2463,-0.2068 0.4055,-0.2264 l 8.8275,-1.0904 c 0.1225,-0.0153 0.2466,0.0066 0.3566,0.063 0.1099,0.0563 0.2007,0.1444 0.2605,0.2531 l 3.0698,5.5771 c 0.1217,0.222 0.0979,0.4972 -0.0608,0.6944 l -5.5956,6.9623 c -0.1009,0.1256 -0.2463,0.2067 -0.4055,0.2264 l -8.8284,1.0904 c -0.1225,0.0153 -0.2466,-0.0067 -0.3566,-0.063 -0.1099,-0.0563 -0.2007,-0.1445 -0.2605,-0.2531 l -1.08,-1.9632 -10.7291,3.6441 v 4.057 c 0,0.2663 -0.1693,0.5043 -0.4206,0.5904 l -7.6937,2.6304 c -0.129,0.044 -0.2687,0.044 -0.3976,0 l -7.6947,-2.6304 c -0.1224,-0.0419 -0.2287,-0.1214 -0.304,-0.2273 -0.0753,-0.1059 -0.1157,-0.2329 -0.1156,-0.3631 v -4.7905 c 0,-0.2663 0.1684,-0.5043 0.4196,-0.5904 l 7.6947,-2.6301 c 0.1286,-0.0439 0.268,-0.0439 0.3967,0 z M 7.8074,56.4427 6.97428,55.7199 C 6.90679,55.6614 6.85264,55.5889 6.81552,55.5074 6.77839,55.4258 6.75917,55.3372 6.75917,55.2475 v -9.5809 c 0,-0.1811 0.07846,-0.3533 0.21511,-0.4723 l 5.23052,-4.5392 c 0.1124,-0.0976 0.2559,-0.1513 0.4043,-0.1513 0.1484,0 0.2918,0.0537 0.4042,0.1513 l 5.2305,4.5392 c 0.0675,0.0585 0.1217,0.131 0.1588,0.2125 0.0371,0.0815 0.0564,0.1702 0.0564,0.2598 v 9.5809 c 0,0.0897 -0.0193,0.1783 -0.0564,0.2599 -0.0371,0.0815 -0.0913,0.154 -0.1588,0.2125 l -0.4875,0.4235 8.4546,9.0011 6.1034,-3.5207 c 0.0936,-0.0541 0.1997,-0.0825 0.3076,-0.0825 0.108,0 0.2141,0.0284 0.3077,0.0825 l 3.9091,2.2554 14.7351,-12.0645 C 51.4919,51.6233 51.4341,51.4222 51.4019,51.2163 L 48.7624,34.4298 c -0.0682,-0.4338 -0.0214,-0.878 0.1355,-1.2878 0.157,-0.4097 0.4186,-0.7705 0.7584,-1.0457 L 62.9112,21.3611 c 0.3366,-0.2726 0.738,-0.4518 1.1645,-0.5199 0.4265,-0.068 0.8633,-0.0226 1.267,0.1319 l 15.9006,6.0841 c 0.4079,0.1561 0.7675,0.4178 1.0426,0.7588 0.2751,0.341 0.4559,0.7492 0.5241,1.1832 l 2.6395,16.7864 c 0.0682,0.4338 0.0214,0.8781 -0.1356,1.2878 -0.157,0.4097 -0.4186,0.7705 -0.7584,1.0457 L 71.2997,58.8543 c -0.3364,0.2724 -0.7377,0.4516 -1.164,0.5196 -0.4264,0.0681 -0.863,0.0227 -1.2666,-0.1316 L 52.9685,53.1582 c -0.05,-0.0191 -0.0994,-0.0399 -0.1481,-0.0622 l -14.3314,11.7341 3.0592,1.7653 c 0.0947,0.0546 0.1733,0.1335 0.228,0.2286 0.0546,0.0951 0.0833,0.2031 0.0832,0.313 v 9.9343 c 0,0.1097 -0.0288,0.2175 -0.0834,0.3125 -0.0547,0.0949 -0.1333,0.1736 -0.2278,0.2282 l -8.6177,4.9716 c -0.0937,0.054 -0.1997,0.0825 -0.3077,0.0825 -0.1079,0 -0.214,-0.0285 -0.3077,-0.0825 L 23.6975,77.612 c -0.0947,-0.0546 -0.1734,-0.1335 -0.228,-0.2286 -0.0547,-0.0951 -0.0834,-0.2031 -0.0833,-0.313 V 67.137 c 0,-0.2229 0.1191,-0.4298 0.3113,-0.5416 l 0.8428,-0.4858 -8.2034,-8.7328 -3.3236,2.8831 c -0.1123,0.0974 -0.2556,0.151 -0.4038,0.151 -0.1482,0 -0.2915,-0.0536 -0.4038,-0.151 L 9.33169,57.7666 7.76244,63.817 8.28258,64.205 c 0.09522,0.0711 0.16751,0.167 0.20983,0.278 l 4.57729,12.012 c 0.0423,0.1101 0.0529,0.2309 0.0291,0.3463 l -1.3118,6.5405 c -0.0206,0.103 -0.0667,0.1991 -0.134,0.2793 -0.0673,0.0803 -0.1536,0.1421 -0.251,0.1798 -0.0973,0.0376 -0.2026,0.0499 -0.3059,0.0356 -0.1033,-0.0143 -0.2014,-0.0546 -0.2851,-0.1173 L 5.49054,79.783 C 5.3962,79.7125 5.32373,79.6164 5.2816,79.506 L 0.703423,67.4931 C 0.661157,67.3825 0.651065,67.262 0.67433,67.1459 l 1.31183,-6.5406 c 0.02056,-0.103 0.06663,-0.199 0.13392,-0.2793 0.0673,-0.0802 0.15364,-0.142 0.251,-0.1797 0.09736,-0.0376 0.20259,-0.0499 0.30592,-0.0356 0.10332,0.0142 0.20139,0.0546 0.2851,0.1173 l 3.23549,2.4187 z m 36.9357,-45.6996 0.9795,1.5788 c 0.1384,0.222 0.1234,0.507 -0.037,0.7139 l -4.8348,6.2333 c -0.0898,0.1155 -0.2171,0.1954 -0.3596,0.2256 l -7.6815,1.6444 c -0.1242,0.0268 -0.2537,0.0144 -0.3707,-0.0354 -0.1171,-0.0499 -0.216,-0.1349 -0.2834,-0.2434 l -2.3795,-3.8359 -9.4949,3.0927 -3.6234,8.597 c -0.0282,0.0671 -0.0679,0.1288 -0.1172,0.1821 L 7.58876,38.5649 C 7.48952,38.6722 7.35592,38.7407 7.21146,38.7586 7.06699,38.7765 6.92089,38.7425 6.79884,38.6626 L 3.66385,36.6115 C 3.54181,36.5317 3.45159,36.4111 3.40902,36.271 3.36646,36.1308 3.37428,35.9801 3.43111,35.8452 L 8.56117,23.6751 c 0.02795,-0.0671 0.06734,-0.1287 0.11637,-0.182 l 8.95356,-9.6697 c 0.0993,-0.1072 0.2329,-0.1758 0.3773,-0.1937 0.1445,-0.0178 0.2906,0.0162 0.4126,0.096 l 3.135,2.0512 c 0.2522,0.1642 0.35,0.4874 0.2328,0.7654 l -0.8904,2.1106 8.7561,-2.8521 4.7492,-6.12141 c 0.0896,-0.11528 0.2166,-0.19513 0.3588,-0.22553 l 7.6814,-1.64535 c 0.1244,-0.02671 0.2539,-0.01419 0.3709,0.03585 0.1171,0.05005 0.216,0.13519 0.2833,0.24385 L 44.1013,9.70603 53.3705,6.32565 51.4989,5.34004 C 51.3756,5.27523 51.2777,5.17052 51.2207,5.04278 51.1638,4.91504 51.1512,4.77172 51.185,4.6359 l 0.9195,-3.716907 c 0.0336,-0.13564 0.1116,-0.255963 0.2212,-0.341636 0.1097,-0.085673 0.2448,-0.131722 0.3836,-0.130748 l 9.5011,0.062156 c 0.0987,0 0.1957,0.024862 0.2821,0.071035 l 8.4184,4.43792 c 0.2531,0.13319 0.3826,0.42354 0.3139,0.70324 l -0.9204,3.71603 c -0.0334,0.1358 -0.1113,0.25632 -0.221,0.34217 -0.1097,0.08585 -0.2449,0.13202 -0.3838,0.1311 L 60.1986,9.8481 C 60.1003,9.84733 60.0035,9.82298 59.9164,9.77707 L 54.7943,7.07685 Z m 20.2073,58.8792 4.3075,2.4854 c 0.0947,0.0546 0.1734,0.1335 0.228,0.2286 0.0547,0.0951 0.0834,0.2031 0.0832,0.313 v 4.96 c 2e-4,0.1099 -0.0285,0.2179 -0.0832,0.3131 -0.0546,0.0951 -0.1333,0.174 -0.228,0.2286 l -4.3075,2.4844 c -0.0937,0.0541 -0.1997,0.0825 -0.3077,0.0825 -0.1079,0 -0.214,-0.0284 -0.3077,-0.0825 L 60.0275,78.151 c -0.0947,-0.0546 -0.1733,-0.1335 -0.228,-0.2286 -0.0546,-0.0952 -0.0833,-0.2032 -0.0832,-0.3131 v -4.9609 c 0,-0.2237 0.119,-0.4297 0.3112,-0.5416 l 4.3075,-2.4845 c 0.0937,-0.054 0.1998,-0.0824 0.3077,-0.0824 0.108,0 0.214,0.0284 0.3077,0.0824 z"
         fill="url(#paint0_linear_10_8)"
         id="path477"
         style="fill:url(#paint0_linear_10_8)" />
    </g>
  </g>
</svg>
